<svg id="svg" version="1.1" xmlns="http://www.w3.org/2000/svg" xmlns:xlink="http://www.w3.org/1999/xlink" width="400" height="390.4761904761905" viewBox="0, 0, 400,390.4761904761905"><g id="svgg"><path id="path0" d="M136.844 144.303 C 130.829 145.608,127.101 149.698,126.746 155.381 C 126.556 158.436,127.053 159.920,129.988 165.059 C 131.657 167.981,131.845 168.508,132.198 171.259 C 132.718 175.324,134.319 176.720,140.231 178.265 C 142.342 178.817,143.921 179.683,142.816 179.683 C 142.544 179.683,140.764 179.185,138.859 178.577 C 134.092 177.056,133.019 177.117,133.462 178.884 C 133.648 179.623,135.837 180.659,139.841 181.904 C 141.238 182.338,141.996 182.853,141.254 182.864 C 141.001 182.867,139.335 182.416,137.552 181.862 C 134.128 180.797,133.333 180.869,133.333 182.243 C 133.333 183.065,134.224 183.590,137.387 184.633 C 140.533 185.670,140.487 185.650,140.240 185.898 C 140.138 185.999,139.273 185.835,138.316 185.533 C 136.199 184.866,135.475 185.062,135.614 186.266 C 135.711 187.109,137.763 188.498,138.992 188.553 C 139.894 188.593,139.138 187.520,137.937 187.055 C 135.799 186.229,135.930 185.744,138.086 186.505 C 139.950 187.162,140.862 187.111,141.283 186.324 C 141.847 185.270,141.459 184.881,139.134 184.175 C 136.251 183.299,134.353 182.481,134.822 182.316 C 135.029 182.242,136.358 182.548,137.775 182.996 C 140.746 183.935,141.974 184.014,142.562 183.307 C 143.304 182.412,142.459 181.797,138.544 180.386 C 132.640 178.257,132.638 177.645,138.542 179.530 C 142.809 180.892,143.721 180.939,144.003 179.814 C 144.293 178.660,143.705 178.202,140.960 177.441 C 134.552 175.665,133.538 174.764,133.039 170.399 C 132.749 167.862,132.569 167.363,130.934 164.585 C 126.219 156.574,126.608 151.164,132.175 147.334 C 144.133 139.107,157.234 153.770,147.451 164.431 C 145.069 167.026,144.374 168.284,143.467 171.643 C 142.693 174.506,142.307 175.029,140.991 174.991 C 138.789 174.929,138.730 174.784,138.730 169.466 L 138.730 164.668 136.982 163.048 C 135.234 161.430,134.817 160.635,135.714 160.635 C 135.976 160.635,136.190 160.768,136.190 160.931 C 136.190 161.094,136.503 161.326,136.885 161.448 C 137.685 161.701,138.730 160.668,138.730 159.624 C 138.730 158.795,139.792 158.987,139.951 159.845 C 140.250 161.455,141.283 161.680,142.598 160.420 C 143.699 159.366,144.021 159.630,143.550 161.202 C 143.124 162.625,141.732 164.058,140.443 164.403 C 139.289 164.712,139.182 165.601,140.317 165.450 C 143.805 164.985,146.501 159.162,143.401 158.790 C 142.805 158.719,142.433 158.915,142.047 159.505 C 141.386 160.513,140.952 160.546,140.952 159.587 C 140.952 158.629,140.385 158.095,139.365 158.095 C 138.410 158.095,137.778 158.619,137.778 159.410 C 137.778 160.227,137.181 160.450,136.542 159.872 C 135.819 159.217,135.456 159.233,134.811 159.946 C 133.938 160.911,134.203 161.686,136.024 163.484 L 137.762 165.201 137.849 169.948 C 137.949 175.372,138.224 175.916,140.904 175.986 C 142.717 176.034,143.611 175.092,144.272 172.435 C 145.060 169.268,146.070 167.352,148.067 165.238 C 156.818 155.969,149.136 141.638,136.844 144.303 M91.069 148.902 C 78.783 150.259,69.041 159.293,66.775 171.429 C 65.533 178.083,65.893 206.741,67.287 212.143 C 71.290 227.660,88.327 236.379,104.286 231.076 C 113.248 228.098,120.310 219.839,122.375 209.921 L 122.590 208.889 116.233 208.889 L 109.876 208.889 108.672 211.181 C 101.392 225.034,82.322 222.556,78.813 207.302 C 77.993 203.739,77.993 177.525,78.813 173.976 C 82.573 157.691,104.504 156.613,109.641 172.460 C 109.873 173.177,122.540 173.332,122.540 172.618 C 122.540 172.399,122.271 171.292,121.943 170.158 C 117.704 155.511,105.749 147.280,91.069 148.902 M163.175 190.794 L 163.175 232.063 177.548 232.063 C 199.825 232.063,203.243 231.208,211.059 223.674 C 218.294 216.700,219.980 210.403,219.991 190.317 C 220.002 170.325,218.202 164.039,210.323 156.554 C 203.607 150.175,200.726 149.524,179.220 149.524 L 163.175 149.524 163.175 190.794 M236.508 190.801 L 236.508 232.110 252.619 231.982 C 272.197 231.826,273.304 231.640,279.678 227.442 C 287.635 222.200,291.795 215.146,292.682 205.397 C 293.113 200.656,293.113 178.805,292.682 174.557 C 291.730 165.166,285.552 156.197,277.302 152.227 C 271.999 149.676,272.456 149.726,253.413 149.602 L 236.508 149.493 236.508 190.801 M313.987 190.397 C 306.073 212.877,299.529 231.451,299.445 231.673 C 299.324 231.993,300.627 232.059,305.731 231.991 L 312.170 231.905 315.238 222.698 L 318.307 213.492 333.519 213.492 L 348.730 213.492 351.863 222.778 L 354.996 232.063 361.341 232.063 C 366.287 232.063,367.654 231.976,367.536 231.667 C 367.453 231.448,360.910 212.877,352.997 190.397 L 338.608 149.524 333.492 149.524 L 328.377 149.524 313.987 190.397 M193.333 161.244 C 200.273 162.389,205.807 167.791,207.339 174.916 C 208.427 179.972,207.929 205.851,206.675 209.417 C 203.705 217.868,198.613 220.303,183.889 220.312 L 175.238 220.317 175.238 190.635 L 175.238 160.952 183.413 160.954 C 187.909 160.955,192.373 161.086,193.333 161.244 M267.460 161.431 C 273.171 162.632,278.248 167.295,280.015 172.961 C 282.202 179.975,281.494 206.789,278.997 211.476 C 275.219 218.568,270.917 220.317,257.251 220.317 L 248.571 220.317 248.571 190.635 L 248.571 160.952 256.905 160.958 C 263.007 160.962,265.833 161.089,267.460 161.431 M339.489 184.314 C 342.564 193.933,345.079 201.969,345.079 202.172 C 345.079 202.444,342.069 202.540,333.492 202.540 C 326.752 202.540,321.905 202.419,321.905 202.251 C 321.905 202.031,332.440 168.855,333.197 166.693 C 333.515 165.783,334.002 167.146,339.489 184.314 M133.333 211.429 L 133.333 232.063 139.365 232.063 L 145.397 232.063 145.397 211.429 L 145.397 190.794 139.365 190.794 L 133.333 190.794 133.333 211.429 " stroke="none" fill="#fbfbfb" fill-rule="evenodd"></path><path id="path1" d="M163.346 0.238 L 153.517 0.327 152.632 1.175 L 151.746 2.024 151.746 22.123 L 151.746 42.222 108.254 42.222 L 64.762 42.222 64.762 86.667 L 64.762 131.111 32.381 131.111 L 0.000 131.111 0.000 195.556 L 0.000 260.000 32.540 260.000 L 65.079 260.000 65.079 304.159 L 65.079 348.317 106.587 348.236 C 151.036 348.149,149.112 348.082,150.869 349.758 C 152.159 350.989,152.187 351.413,152.205 370.171 C 152.224 389.245,152.139 388.409,154.197 389.757 C 155.269 390.460,198.718 390.557,209.524 389.881 C 240.814 387.923,267.190 380.533,293.810 366.267 C 370.493 325.172,411.564 243.931,397.285 161.587 C 383.822 83.940,317.325 16.504,241.429 3.531 C 222.231 0.249,211.626 -0.198,163.346 0.238 M144.523 144.889 C 152.824 148.851,154.607 158.409,148.309 165.179 C 146.021 167.639,145.647 168.322,144.608 171.954 C 143.457 175.973,141.762 177.118,139.041 175.711 C 137.623 174.978,137.460 174.353,137.460 169.653 L 137.460 165.296 135.714 163.465 C 133.832 161.492,133.706 161.150,134.462 160.071 C 135.037 159.251,136.068 159.156,136.838 159.853 C 137.331 160.299,137.392 160.261,137.566 159.394 C 137.942 157.511,140.384 157.280,141.007 159.068 L 141.338 160.019 142.083 159.216 C 142.986 158.241,143.600 158.203,144.465 159.068 C 146.279 160.882,142.271 166.377,139.725 165.569 C 139.084 165.365,139.103 164.444,139.748 164.444 C 141.305 164.444,143.488 162.233,143.491 160.655 L 143.492 159.881 142.602 160.734 C 141.339 161.944,140.000 161.717,140.000 160.293 C 140.000 159.007,139.153 159.023,138.645 160.318 C 138.090 161.731,137.175 162.002,136.136 161.062 C 134.747 159.805,135.638 161.534,137.143 163.016 L 138.730 164.579 138.730 169.054 C 138.730 174.076,138.878 174.513,140.684 174.806 C 142.108 175.037,142.562 174.462,143.333 171.451 C 144.088 168.507,145.143 166.628,147.463 164.100 C 156.393 154.369,145.854 140.903,133.789 146.629 C 126.888 149.904,126.061 156.312,131.402 165.127 C 132.772 167.389,133.310 169.147,133.330 171.429 C 133.354 174.185,134.523 175.206,139.365 176.703 C 143.741 178.055,144.127 178.267,144.127 179.321 C 144.127 181.290,142.519 181.254,136.856 179.157 C 135.738 178.743,134.758 178.469,134.679 178.549 C 134.497 178.731,136.031 179.372,138.889 180.310 C 142.121 181.370,142.857 181.803,142.857 182.643 C 142.857 184.316,141.887 184.464,138.267 183.347 C 136.877 182.918,135.689 182.618,135.627 182.680 C 135.566 182.741,136.703 183.180,138.154 183.656 C 141.268 184.675,141.746 185.038,141.464 186.164 C 141.285 186.877,141.090 186.984,139.971 186.984 C 138.802 186.984,138.730 187.029,139.184 187.483 C 140.381 188.681,139.291 188.925,137.045 187.963 C 134.788 186.995,134.490 185.090,136.593 185.069 C 137.506 185.060,137.391 184.963,135.556 184.186 C 133.580 183.351,133.492 183.266,133.492 182.212 C 133.492 180.512,134.282 180.568,140.943 182.739 C 141.199 182.822,141.319 182.801,141.209 182.691 C 141.099 182.581,139.675 182.026,138.044 181.458 C 133.390 179.837,132.576 179.183,133.525 177.827 C 134.137 176.953,134.611 176.967,137.484 177.946 C 141.300 179.247,143.014 179.712,142.651 179.349 C 142.465 179.163,141.471 178.793,140.442 178.527 C 134.306 176.938,132.273 175.147,131.957 171.055 C 131.774 168.681,131.618 168.228,130.007 165.381 C 126.156 158.581,125.568 154.999,127.625 150.882 C 130.582 144.965,138.671 142.095,144.523 144.889 M102.381 149.503 C 112.226 152.096,121.519 162.543,122.593 172.222 L 122.698 173.175 116.236 173.175 L 109.774 173.175 109.010 171.270 C 103.309 157.070,82.936 158.372,79.221 173.175 C 77.720 179.154,77.720 202.116,79.221 208.095 C 82.915 222.813,102.021 224.400,108.836 210.556 L 109.656 208.889 116.263 208.889 L 122.869 208.889 122.659 209.762 C 119.735 221.877,111.794 229.980,100.627 232.243 C 85.333 235.342,69.723 225.537,66.801 210.996 C 65.481 204.431,65.514 176.350,66.848 170.159 C 70.147 154.849,86.527 145.327,102.381 149.503 M198.889 150.078 C 208.726 152.689,216.960 161.340,219.209 171.429 C 220.496 177.203,220.160 205.680,218.739 211.236 C 216.292 220.804,207.152 229.428,197.302 231.465 C 194.744 231.993,192.807 232.056,178.810 232.059 L 163.175 232.063 163.175 190.617 L 163.175 149.170 179.762 149.287 C 195.453 149.398,196.486 149.441,198.889 150.078 M272.222 150.099 C 282.636 152.974,291.099 162.390,292.705 172.890 C 293.687 179.303,293.358 204.859,292.224 210.317 C 290.102 220.531,279.869 230.051,269.206 231.733 C 268.008 231.922,260.722 232.060,251.825 232.061 L 236.508 232.063 236.508 190.615 L 236.508 149.166 253.095 149.282 C 269.036 149.393,269.782 149.425,272.222 150.099 M339.140 150.556 C 342.310 159.670,367.716 231.645,367.825 231.823 C 367.907 231.955,364.999 232.063,361.364 232.063 L 354.754 232.063 351.717 222.937 L 348.681 213.810 333.492 213.810 L 318.303 213.810 315.267 222.937 L 312.230 232.063 305.620 232.063 C 301.985 232.063,299.078 231.954,299.160 231.820 C 299.270 231.643,324.119 161.241,327.843 150.556 L 328.314 149.206 333.492 149.206 L 338.670 149.206 339.140 150.556 M175.556 190.794 L 175.556 220.317 182.937 220.308 C 196.204 220.290,200.009 219.115,204.052 213.788 C 207.353 209.439,207.684 207.342,207.665 190.952 C 207.644 172.980,207.218 171.071,202.056 165.835 C 198.103 161.824,195.949 161.270,184.319 161.270 L 175.556 161.270 175.556 190.794 M248.649 190.693 L 248.730 220.159 257.619 220.136 C 269.221 220.106,271.920 219.412,275.802 215.460 C 280.499 210.678,280.795 209.211,280.787 190.794 C 280.779 173.004,280.659 172.305,276.769 167.398 C 272.622 162.165,270.504 161.475,258.173 161.336 L 248.568 161.228 248.649 190.693 M327.743 184.308 L 322.002 202.222 333.520 202.222 L 345.038 202.222 344.439 200.397 C 344.110 199.393,341.533 191.357,338.713 182.540 C 335.893 173.722,333.562 166.482,333.535 166.451 C 333.507 166.420,330.901 174.456,327.743 184.308 M145.397 211.270 L 145.397 232.063 139.365 232.063 L 133.333 232.063 133.333 211.270 L 133.333 190.476 139.365 190.476 L 145.397 190.476 145.397 211.270 " stroke="none" fill="#241c24" fill-rule="evenodd"></path><path id="path2" d="M113.016 155.337 C 113.016 155.392,113.480 155.856,114.048 156.369 L 115.079 157.302 114.147 156.270 C 113.278 155.308,113.016 155.092,113.016 155.337 M210.794 156.984 C 211.386 157.595,211.942 158.095,212.029 158.095 C 212.117 158.095,211.703 157.595,211.111 156.984 C 210.519 156.373,209.963 155.873,209.875 155.873 C 209.788 155.873,210.201 156.373,210.794 156.984 " stroke="none" fill="#948c8c" fill-rule="evenodd"></path><path id="path3" d="M139.444 144.981 C 139.750 145.061,140.250 145.061,140.556 144.981 C 140.861 144.901,140.611 144.836,140.000 144.836 C 139.389 144.836,139.139 144.901,139.444 144.981 M170.736 149.444 C 174.982 149.494,181.840 149.494,185.974 149.444 C 190.109 149.394,186.635 149.353,178.254 149.353 C 169.873 149.353,166.490 149.394,170.736 149.444 M244.070 149.444 C 248.316 149.494,255.173 149.494,259.308 149.444 C 263.442 149.394,259.968 149.353,251.587 149.353 C 243.206 149.353,239.823 149.394,244.070 149.444 M331.047 149.443 C 332.496 149.502,334.781 149.501,336.126 149.442 C 337.471 149.383,336.286 149.334,333.492 149.335 C 330.698 149.335,329.598 149.384,331.047 149.443 M219.769 180.952 C 219.769 181.738,219.831 182.060,219.907 181.667 C 219.982 181.274,219.982 180.631,219.907 180.238 C 219.831 179.845,219.769 180.167,219.769 180.952 M207.706 181.905 C 207.706 182.690,207.767 183.012,207.843 182.619 C 207.919 182.226,207.919 181.583,207.843 181.190 C 207.767 180.798,207.706 181.119,207.706 181.905 M293.151 190.317 C 293.151 194.159,293.197 195.687,293.253 193.713 C 293.309 191.739,293.309 188.596,293.253 186.728 C 293.197 184.861,293.151 186.476,293.151 190.317 M281.088 191.111 C 281.088 195.040,281.134 196.647,281.189 194.683 C 281.245 192.718,281.245 189.504,281.189 187.540 C 281.134 185.575,281.088 187.183,281.088 191.111 M219.763 199.206 C 219.766 199.905,219.831 200.153,219.907 199.758 C 219.983 199.363,219.980 198.792,219.901 198.488 C 219.821 198.185,219.759 198.508,219.763 199.206 M207.706 200.317 C 207.706 201.103,207.767 201.425,207.843 201.032 C 207.919 200.639,207.919 199.996,207.843 199.603 C 207.767 199.210,207.706 199.532,207.706 200.317 M325.974 213.571 C 330.221 213.621,337.078 213.621,341.212 213.571 C 345.347 213.521,341.873 213.480,333.492 213.480 C 325.111 213.480,321.728 213.521,325.974 213.571 M211.250 223.571 L 210.317 224.603 211.349 223.671 C 212.311 222.802,212.527 222.540,212.282 222.540 C 212.227 222.540,211.763 223.004,211.250 223.571 M114.107 225.159 L 113.175 226.190 114.206 225.258 C 115.168 224.389,115.384 224.127,115.139 224.127 C 115.084 224.127,114.620 224.591,114.107 225.159 " stroke="none" fill="#a49c9c" fill-rule="evenodd"></path><path id="path4" d="M127.706 156.190 C 127.706 156.976,127.767 157.298,127.843 156.905 C 127.919 156.512,127.919 155.869,127.843 155.476 C 127.767 155.083,127.706 155.405,127.706 156.190 M73.790 157.222 L 72.857 158.254 73.889 157.322 C 74.456 156.809,74.921 156.344,74.921 156.290 C 74.921 156.045,74.659 156.260,73.790 157.222 M175.384 161.349 C 175.301 161.567,175.271 174.889,175.317 190.952 L 175.400 220.159 175.478 190.720 L 175.556 161.281 183.413 161.190 L 191.270 161.099 183.403 161.026 C 177.346 160.969,175.501 161.044,175.384 161.349 M252.796 161.190 C 255.033 161.244,258.604 161.244,260.733 161.189 C 262.861 161.135,261.032 161.090,256.667 161.090 C 252.302 161.090,250.560 161.135,252.796 161.190 M146.650 165.000 L 145.556 166.190 146.746 165.096 C 147.854 164.078,148.082 163.810,147.840 163.810 C 147.787 163.810,147.251 164.345,146.650 165.000 M137.586 169.841 C 137.586 172.373,137.636 173.409,137.696 172.143 C 137.756 170.877,137.756 168.806,137.696 167.540 C 137.636 166.274,137.586 167.310,137.586 169.841 M116.190 173.016 L 109.683 173.195 116.092 173.264 C 120.100 173.307,122.576 173.214,122.698 173.016 C 122.806 172.841,122.850 172.730,122.797 172.768 C 122.743 172.806,119.770 172.918,116.190 173.016 M293.111 181.587 C 293.111 182.548,293.171 182.940,293.243 182.460 C 293.316 181.980,293.316 181.194,293.243 180.714 C 293.171 180.234,293.111 180.627,293.111 181.587 M65.852 190.635 C 65.852 195.000,65.896 196.830,65.951 194.701 C 66.006 192.572,66.006 189.001,65.952 186.765 C 65.897 184.528,65.852 186.270,65.852 190.635 M207.733 186.032 C 207.733 187.690,207.787 188.369,207.852 187.540 C 207.918 186.710,207.918 185.353,207.852 184.524 C 207.787 183.694,207.733 184.373,207.733 186.032 M136.270 190.713 C 137.972 190.770,140.758 190.770,142.460 190.713 C 144.163 190.656,142.770 190.609,139.365 190.609 C 135.960 190.609,134.567 190.656,136.270 190.713 M207.732 196.349 C 207.731 197.921,207.784 198.604,207.851 197.867 C 207.918 197.130,207.918 195.844,207.853 195.010 C 207.787 194.175,207.733 194.778,207.732 196.349 M293.107 198.571 C 293.109 199.444,293.171 199.764,293.244 199.281 C 293.317 198.799,293.315 198.085,293.239 197.694 C 293.164 197.304,293.104 197.698,293.107 198.571 M327.719 202.460 C 331.004 202.512,336.290 202.512,339.465 202.460 C 342.640 202.408,339.952 202.366,333.492 202.366 C 327.032 202.366,324.434 202.408,327.719 202.460 M275.694 215.635 L 274.762 216.667 275.794 215.734 C 276.755 214.865,276.971 214.603,276.726 214.603 C 276.671 214.603,276.207 215.067,275.694 215.635 " stroke="none" fill="#6d6969" fill-rule="evenodd"></path></g></svg>